<svg width="88" height="88" viewBox="0 0 88 88" fill="none" xmlns="http://www.w3.org/2000/svg">
<circle opacity="0.1" cx="44" cy="44" r="44" fill="#8FA632"/>
<path d="M25.9424 28.136C25.5198 27.2625 25.8852 26.2118 26.7588 25.7893C27.0439 25.6514 27.3476 25.5988 27.6424 25.619C27.9205 25.0007 28.4088 24.473 29.0667 24.1547C30.554 23.4351 32.3429 24.0575 33.0625 25.5447C33.2364 25.9042 33.3313 26.2813 33.3551 26.6566C34.0189 26.6345 34.6651 26.9961 34.973 27.6325C35.3896 28.4936 35.0294 29.5293 34.1682 29.9459C33.3862 30.3242 32.4617 30.0603 31.9862 29.3639C31.8863 29.4279 31.7821 29.4873 31.6725 29.5404C30.4967 30.1092 29.1328 29.8388 28.2573 28.9659C27.3903 29.3647 26.36 28.9989 25.9424 28.136Z" fill="url(#paint0_linear)"/>
<path d="M26.3844 24.9367C27.1953 24.9367 27.8527 24.2793 27.8527 23.4684C27.8527 22.6574 27.1953 22 26.3844 22C25.5734 22 24.916 22.6574 24.916 23.4684C24.916 24.2793 25.5734 24.9367 26.3844 24.9367Z" fill="url(#paint1_linear)"/>
<path d="M35.1076 36.7783H31.5661C31.065 36.7783 30.6587 36.372 30.6587 35.8709V30.222C30.6587 29.7209 31.065 29.3146 31.5661 29.3146H35.1076C35.6088 29.3146 36.015 29.7209 36.015 30.222V35.8709C36.0151 36.372 35.6088 36.7783 35.1076 36.7783Z" fill="url(#paint2_linear)"/>
<path d="M33.9856 52.8849H23.4102V66.4567H33.9856V52.8849Z" fill="url(#paint3_linear)"/>
<path d="M34.426 55.793H23.4337C22.9833 55.793 22.6608 55.3581 22.7915 54.927L23.8824 51.3339C23.9682 51.051 24.2289 50.8578 24.5245 50.8578H34.4261V55.793H34.426Z" fill="url(#paint4_linear)"/>
<path d="M65.5354 52.8849H54.96V66.4567H65.5354V52.8849Z" fill="url(#paint5_linear)"/>
<path d="M65.5353 62.901L58.43 55.7955H54.96V66.4565H65.5353V62.901Z" fill="url(#paint6_linear)"/>
<path d="M54.5195 55.793H65.5119C65.9623 55.793 66.2847 55.3581 66.154 54.927L65.0632 51.3339C64.9774 51.051 64.7166 50.8578 64.4211 50.8578H54.5195V55.793Z" fill="url(#paint7_linear)"/>
<path d="M58.4358 38.3768V66.4563H30.5132V38.3768L44.4727 24.6905L58.4358 38.3768Z" fill="url(#paint8_linear)"/>
<path d="M30.5132 38.3768V39.9856L56.9839 66.4563H58.4358V38.3768L44.4727 24.6905L30.5132 38.3768Z" fill="url(#paint9_linear)"/>
<path d="M58.4358 46.863V66.4565H49.6203L30.5132 47.3494V46.863H58.4358Z" fill="url(#paint10_linear)"/>
<path d="M54.1215 66.4565H40.4654L32.9586 58.9497C32.6281 58.7354 32.4082 58.3637 32.4082 57.9419V51.9002C32.4082 51.2383 32.9471 50.6994 33.609 50.6994H37.9648C38.3874 50.6994 38.7592 50.9194 38.9735 51.2498L38.9408 51.2757L54.1215 66.4565Z" fill="url(#paint11_linear)"/>
<path d="M37.9645 58.4388H33.6091C33.3344 58.4388 33.1118 58.2162 33.1118 57.9415V51.9006C33.1118 51.6259 33.3345 51.4033 33.6091 51.4033H37.9645C38.2392 51.4033 38.4618 51.626 38.4618 51.9006V57.9415C38.4619 58.2162 38.2392 58.4388 37.9645 58.4388Z" fill="#503837"/>
<path d="M37.9649 59.1428H33.6094C32.9471 59.1428 32.4082 58.6039 32.4082 57.9416V51.9007C32.4082 51.2384 32.9471 50.6995 33.6094 50.6995H37.9649C38.6272 50.6995 39.1661 51.2384 39.1661 51.9007V57.9416C39.1662 58.6039 38.6273 59.1428 37.9649 59.1428ZM33.8162 57.7349H37.7582V52.1073H33.8162V57.7349Z" fill="white"/>
<path d="M58.4369 53.1914V66.4565H58.0084L50.5017 58.9497C50.1702 58.7354 49.9502 58.3637 49.9502 57.9419V51.9002C49.9502 51.2383 50.4891 50.6994 51.152 50.6994H55.5068C55.9294 50.6994 56.3012 50.9194 56.5155 51.2498L56.5328 51.2633L56.5212 51.2759L58.4369 53.1914Z" fill="url(#paint12_linear)"/>
<path d="M55.507 58.4388H51.1516C50.8769 58.4388 50.6543 58.2162 50.6543 57.9415V51.9006C50.6543 51.6259 50.8769 51.4033 51.1516 51.4033H55.507C55.7817 51.4033 56.0043 51.626 56.0043 51.9006V57.9415C56.0044 58.2162 55.7817 58.4388 55.507 58.4388Z" fill="#503837"/>
<path d="M55.5068 59.1428H51.1514C50.4891 59.1428 49.9502 58.6039 49.9502 57.9416V51.9007C49.9502 51.2384 50.4891 50.6995 51.1514 50.6995H55.5068C56.1692 50.6995 56.7081 51.2384 56.7081 51.9007V57.9416C56.7081 58.6039 56.1692 59.1428 55.5068 59.1428ZM51.358 57.7349H55.3V52.1073H51.358V57.7349Z" fill="white"/>
<path d="M41.5649 66.4561V51.2019C41.5649 50.5291 42.1103 49.9837 42.7832 49.9837H46.1661C46.8389 49.9837 47.3843 50.5291 47.3843 51.2019V66.4561H41.5649Z" fill="#816965"/>
<path d="M48.1051 66.4561H46.664V51.6174C46.664 51.1152 46.2532 50.7043 45.751 50.7043H43.1987C42.6945 50.7043 42.2857 51.113 42.2857 51.6174V66.4561H40.8447V50.6644C40.8447 49.8906 41.472 49.2632 42.2459 49.2632H46.7039C47.4777 49.2632 48.105 49.8906 48.105 50.6644V66.4561H48.1051Z" fill="#503837"/>
<path d="M43.4426 56.3665C43.8055 56.3665 44.0996 56.0723 44.0996 55.7095C44.0996 55.3467 43.8055 55.0525 43.4426 55.0525C43.0798 55.0525 42.7856 55.3467 42.7856 55.7095C42.7856 56.0723 43.0798 56.3665 43.4426 56.3665Z" fill="white"/>
<path d="M58.4366 62.6117H30.5122V66.4559H58.4366V62.6117Z" fill="#654E48"/>
<path d="M30.2066 64.9539C30.2066 65.4845 30.1063 65.9908 29.923 66.4561H22.2836C22.1003 65.9908 22 65.4845 22 64.9539C22 64.4373 22.0952 63.9435 22.2697 63.4885C22.8595 61.9453 24.3536 60.8506 26.1034 60.8506C27.8532 60.8506 29.3472 61.9454 29.9371 63.4885C30.1114 63.9435 30.2066 64.4374 30.2066 64.9539Z" fill="url(#paint13_linear)"/>
<path d="M32.8525 65.3665C32.8525 65.7514 32.7797 66.1186 32.6468 66.4562H27.1051C26.9722 66.1187 26.8994 65.7514 26.8994 65.3665C26.8994 64.9918 26.9685 64.6335 27.0951 64.3035C27.5229 63.184 28.6067 62.39 29.8761 62.39C31.1454 62.39 32.2292 63.184 32.6571 64.3035C32.7834 64.6335 32.8525 64.9918 32.8525 65.3665Z" fill="url(#paint14_linear)"/>
<path d="M66.9453 64.705C66.9453 65.3235 66.8283 65.9136 66.6147 66.4561H57.7095C57.496 65.9137 57.3789 65.3235 57.3789 64.705C57.3789 64.1028 57.49 63.5272 57.6933 62.9968C58.3809 61.198 60.1224 59.9218 62.1621 59.9218C64.2018 59.9218 65.9433 61.198 66.6309 62.9968C66.8342 63.5272 66.9453 64.1028 66.9453 64.705Z" fill="url(#paint15_linear)"/>
<path d="M58.4358 42.3937V57.2759L40.4743 39.3136C40.1218 39.1013 39.8848 38.7161 39.8848 38.2755V34.901C39.8848 32.3717 41.9435 30.314 44.4727 30.314C45.8422 30.314 47.0734 30.9185 47.915 31.8729L58.4358 42.3937Z" fill="url(#paint16_linear)"/>
<path d="M56.3894 40.9458H32.9178C32.3581 40.9458 31.9028 41.4011 31.9028 41.9607V46.467H32.6078V41.9607C32.6078 41.7898 32.7469 41.6508 32.9178 41.6508H34.3218V46.4669H35.0268V41.6508H37.1213V46.4669H37.8262V41.6508H39.9207V46.4669H40.6257V41.6508H42.7201V46.4669H43.4251V41.6508H45.5197V46.4669H46.2246V41.6508H48.3191V46.4669H49.0241V41.6508H51.1185V46.4669H51.8235V41.6508H53.918V46.4669H54.623V41.6508H56.389C56.5599 41.6508 56.699 41.7898 56.699 41.9607V46.467H57.404V41.9607C57.4043 41.4011 56.949 40.9458 56.3894 40.9458Z" fill="#654E48"/>
<path d="M59.0148 45.7355V47.9959C59.0148 48.3319 58.7425 48.6042 58.4065 48.6042H30.5394C30.2035 48.6042 29.9312 48.3319 29.9312 47.9959V45.7355C29.9312 45.3995 30.2035 45.1272 30.5394 45.1272H58.4065C58.7425 45.1272 59.0148 45.3995 59.0148 45.7355Z" fill="url(#paint17_linear)"/>
<path d="M63.435 40.8248L45.4055 22.7894C44.8916 22.2755 44.0584 22.2755 43.5445 22.7894L25.5105 40.8233C25.1742 41.1595 25.1742 41.7046 25.5105 42.0408L26.279 42.8093C26.6152 43.1456 27.1603 43.1456 27.4965 42.8093L44.2299 26.0759C44.3652 25.9406 44.5846 25.9406 44.7198 26.0759L61.4489 42.8107C61.7851 43.147 62.3301 43.147 62.6664 42.8107L63.4349 42.0422C63.7712 41.7061 63.7712 41.161 63.435 40.8248Z" fill="url(#paint18_linear)"/>
<path d="M45.4056 22.7893C45.1487 22.5324 44.8119 22.404 44.4751 22.404V25.9746C44.5638 25.9746 44.6524 26.0085 44.7201 26.0761L61.4491 42.8109C61.7853 43.1471 62.3303 43.1471 62.6665 42.8109L63.4351 42.0424C63.7713 41.7061 63.7713 41.1611 63.4351 40.8249L45.4056 22.7893Z" fill="url(#paint19_linear)"/>
<path d="M47.8464 38.7568H41.0989C40.8328 38.7568 40.6172 38.5411 40.6172 38.2751V34.9013C40.6172 32.7719 42.3434 31.0457 44.4728 31.0457C46.6021 31.0457 48.3283 32.7719 48.3283 34.9013V38.2751C48.3282 38.5411 48.1124 38.7568 47.8464 38.7568Z" fill="#654E48"/>
<path d="M44.4728 30.3137C41.9432 30.3137 39.8853 32.3717 39.8853 34.9012V38.2749C39.8853 38.9443 40.4297 39.4887 41.099 39.4887H47.8466C48.5159 39.4887 49.0604 38.9443 49.0604 38.2749V34.9012C49.0603 32.3716 47.0024 30.3137 44.4728 30.3137ZM47.5709 34.5108H45.2049V31.8653C46.4516 32.166 47.4087 33.2163 47.5709 34.5108ZM43.7406 31.8653V34.5108H41.3746C41.5368 33.2163 42.4938 32.166 43.7406 31.8653ZM41.3493 35.975H43.7406V38.0248H41.3493V35.975ZM45.2049 38.0248V35.975H47.5962V38.0248H45.2049Z" fill="white"/>
<defs>
<linearGradient id="paint0_linear" x1="24.2444" y1="24.8202" x2="41.5358" y2="30.8359" gradientUnits="userSpaceOnUse">
<stop stop-color="#E2EDF2"/>
<stop offset="1" stop-color="#9FC7E2"/>
</linearGradient>
<linearGradient id="paint1_linear" x1="25.9081" y1="23.3036" x2="28.454" y2="24.1896" gradientUnits="userSpaceOnUse">
<stop stop-color="#E2EDF2"/>
<stop offset="1" stop-color="#9FC7E2"/>
</linearGradient>
<linearGradient id="paint2_linear" x1="31.902" y1="31.6132" x2="33.6787" y2="33.389" gradientUnits="userSpaceOnUse">
<stop stop-color="#816965"/>
<stop offset="1" stop-color="#654E48"/>
</linearGradient>
<linearGradient id="paint3_linear" x1="28.6977" y1="54.6046" x2="28.6977" y2="66.6568" gradientUnits="userSpaceOnUse">
<stop stop-color="#FFE7A5"/>
<stop offset="0.966" stop-color="#FFBF5C"/>
</linearGradient>
<linearGradient id="paint4_linear" x1="28.594" y1="51.4832" x2="28.594" y2="55.8666" gradientUnits="userSpaceOnUse">
<stop stop-color="#FF5D00"/>
<stop offset="1" stop-color="#D54003"/>
</linearGradient>
<linearGradient id="paint5_linear" x1="60.2468" y1="54.6046" x2="60.2468" y2="66.6568" gradientUnits="userSpaceOnUse">
<stop stop-color="#FFE7A5"/>
<stop offset="0.966" stop-color="#FFBF5C"/>
</linearGradient>
<linearGradient id="paint6_linear" x1="60" y1="64.0721" x2="49.038" y2="54.3033" gradientUnits="userSpaceOnUse">
<stop stop-color="#FF5D00" stop-opacity="0"/>
<stop offset="1" stop-color="#D54003"/>
</linearGradient>
<linearGradient id="paint7_linear" x1="60.3506" y1="51.4832" x2="60.3506" y2="55.8666" gradientUnits="userSpaceOnUse">
<stop stop-color="#FF5D00"/>
<stop offset="1" stop-color="#D54003"/>
</linearGradient>
<linearGradient id="paint8_linear" x1="44.474" y1="45.8633" x2="44.474" y2="75.4289" gradientUnits="userSpaceOnUse">
<stop stop-color="#FFE7A5"/>
<stop offset="0.966" stop-color="#FFBF5C"/>
<stop offset="1" stop-color="#DB9E36"/>
</linearGradient>
<linearGradient id="paint9_linear" x1="41.4564" y1="36.1642" x2="33.3735" y2="28.0812" gradientUnits="userSpaceOnUse">
<stop stop-color="#FF5D00" stop-opacity="0"/>
<stop offset="1" stop-color="#D54003"/>
</linearGradient>
<linearGradient id="paint10_linear" x1="45.5251" y1="53.6309" x2="42.3622" y2="33.9989" gradientUnits="userSpaceOnUse">
<stop stop-color="#FF5D00" stop-opacity="0"/>
<stop offset="1" stop-color="#D54003"/>
</linearGradient>
<linearGradient id="paint11_linear" x1="41.2267" y1="60.361" x2="28.6299" y2="47.7642" gradientUnits="userSpaceOnUse">
<stop stop-color="#FF5D00" stop-opacity="0"/>
<stop offset="1" stop-color="#D54003"/>
</linearGradient>
<linearGradient id="paint12_linear" x1="56.6993" y1="58.2916" x2="48.634" y2="50.2263" gradientUnits="userSpaceOnUse">
<stop stop-color="#FF5D00" stop-opacity="0"/>
<stop offset="1" stop-color="#D54003"/>
</linearGradient>
<linearGradient id="paint13_linear" x1="23.7892" y1="62.3995" x2="28.8526" y2="67.4624" gradientUnits="userSpaceOnUse">
<stop stop-color="#9EB644"/>
<stop offset="1" stop-color="#738611"/>
</linearGradient>
<linearGradient id="paint14_linear" x1="28.1971" y1="63.5132" x2="31.8702" y2="67.1863" gradientUnits="userSpaceOnUse">
<stop stop-color="#9EB644"/>
<stop offset="1" stop-color="#738611"/>
</linearGradient>
<linearGradient id="paint15_linear" x1="59.464" y1="61.7271" x2="65.3658" y2="67.6298" gradientUnits="userSpaceOnUse">
<stop stop-color="#9EB644"/>
<stop offset="1" stop-color="#738611"/>
</linearGradient>
<linearGradient id="paint16_linear" x1="50.8878" y1="42.3066" x2="37.9746" y2="29.3934" gradientUnits="userSpaceOnUse">
<stop stop-color="#FF5D00" stop-opacity="0"/>
<stop offset="1" stop-color="#D54003"/>
</linearGradient>
<linearGradient id="paint17_linear" x1="44.4725" y1="45.4976" x2="44.4725" y2="50.1102" gradientUnits="userSpaceOnUse">
<stop stop-color="#FF5D00"/>
<stop offset="1" stop-color="#D54003"/>
</linearGradient>
<linearGradient id="paint18_linear" x1="44.4722" y1="34.6034" x2="44.4722" y2="50.2626" gradientUnits="userSpaceOnUse">
<stop stop-color="#FF5D00"/>
<stop offset="1" stop-color="#D54003"/>
</linearGradient>
<linearGradient id="paint19_linear" x1="57.9408" y1="37.3837" x2="48.4761" y2="27.9191" gradientUnits="userSpaceOnUse">
<stop stop-color="#FF5D00" stop-opacity="0"/>
<stop offset="1" stop-color="#D54003"/>
</linearGradient>
</defs>
</svg>
