<svg width="88" height="88" viewBox="0 0 88 88" fill="none" xmlns="http://www.w3.org/2000/svg">
<circle opacity="0.1" cx="44" cy="44" r="44" fill="#DC780B"/>
<path d="M44.2827 18.0021V69.9979C58.5121 69.8472 70.0002 58.2649 70.0002 44C70.0002 29.735 58.5121 18.1528 44.2827 18.0021Z" fill="#FFBB54"/>
<path d="M44.2825 18.0021C44.1883 18.001 44.0942 18 44 18C29.6409 18 18 29.6409 18 44C18 58.3591 29.6409 70 44 70C44.0942 70 44.1883 69.999 44.2825 69.9979C56.1996 69.8179 65.8149 58.2472 65.8149 44C65.8149 29.7528 56.1996 18.1821 44.2825 18.0021Z" fill="#FFD45A"/>
<path d="M54.3058 40.8821L44.1328 53.8821H54.5841C56.3764 51.5981 57.4446 48.7187 57.4446 45.5903V44.0209C57.4446 42.2946 56.0321 40.8821 54.3058 40.8821Z" fill="#B74147"/>
<path d="M33.694 40.8821C31.9677 40.8821 30.5552 42.2946 30.5552 44.0209V45.5903C30.5552 48.7187 31.6234 51.5981 33.4157 53.8821L52.9863 52.1746C53.8265 50.2285 54.3057 47.9821 54.3057 45.5903V44.0212L33.694 40.8821Z" fill="#FF3C1F"/>
<path d="M52.9864 52.1746L44.1328 59.034C48.3755 58.9932 52.1473 56.9874 54.5841 53.8821C54.1017 53.2679 53.5671 52.6956 52.9864 52.1746Z" fill="#FA4087"/>
<path d="M52.9866 52.1745C51.2414 56.2226 47.9352 58.9712 44.133 59.0339C44.0891 59.035 44.0441 59.035 44.0002 59.035C39.7031 59.035 35.8779 57.0199 33.416 53.8821C35.8779 50.7453 39.7031 48.7292 44.0002 48.7292C47.455 48.7292 50.6053 50.0328 52.9866 52.1745Z" fill="#FA71A3"/>
<path d="M51.1671 40.8821L49.5977 45.5903H52.7365C53.5997 45.5903 54.3059 44.8841 54.3059 44.0209V40.8821H51.1671Z" fill="#FFF7DF"/>
<path d="M51.1672 40.8821V44.0209C51.1672 44.8841 50.4609 45.5903 49.5978 45.5903H35.2638C34.4006 45.5903 33.6943 44.8841 33.6943 44.0209V40.8821H51.1672Z" fill="white"/>
<path d="M44.7848 62.9589H43.2154C42.7819 62.9589 42.4307 62.6076 42.4307 62.1742C42.4307 61.7409 42.7819 61.3895 43.2154 61.3895H44.7848C45.2183 61.3895 45.5695 61.7409 45.5695 62.1742C45.5695 62.6076 45.2183 62.9589 44.7848 62.9589Z" fill="#FFBB54"/>
<path d="M52.7364 29.8962C51.8732 29.8962 51.167 30.6024 51.167 31.4656V36.1738C51.167 37.037 51.8732 37.7433 52.7364 37.7433C53.5996 37.7433 54.3058 37.037 54.3058 36.1738V31.4656C54.3058 30.6024 53.5996 29.8962 52.7364 29.8962Z" fill="#474867"/>
<path d="M35.2638 29.8972C34.4006 29.8972 33.6943 30.6034 33.6943 31.4666V36.1749C33.6943 37.038 34.4006 37.7443 35.2638 37.7443C36.1269 37.7443 36.8332 37.038 36.8332 36.1749V31.4666C36.8332 30.6034 36.1269 29.8972 35.2638 29.8972Z" fill="#474867"/>
</svg>
